<?xml version="1.0" encoding="UTF-8" standalone="no"?>
<!DOCTYPE svg PUBLIC "-//W3C//DTD SVG 1.1//EN" "http://www.w3.org/Graphics/SVG/1.1/DTD/svg11.dtd">
<svg xmlns="http://www.w3.org/2000/svg" version="1.1" viewBox="0.00 0.00 225.00 225.00">
<circle fill="#5a6f09" cx="112.38" cy="24.02" r="11.23"/>
<path fill="#6e8513" d="
  M 85.76 27.83
  Q 90.22 39.20 88.07 52.63
  Q 87.97 53.28 87.43 52.90
  Q 74.61 44.03 69.72 29.00
  C 68.82 26.22 70.81 21.90 72.75 17.92
  Q 73.02 17.37 73.61 17.56
  Q 76.66 18.55 80.46 20.27
  C 83.52 21.65 84.64 24.96 85.76 27.83
  Z"
/>
<path fill="#6e8513" d="
  M 140.55 24.17
  Q 141.67 21.74 143.65 20.70
  Q 147.41 18.73 151.21 17.55
  Q 151.74 17.39 151.98 17.88
  C 153.40 20.77 156.00 25.67 155.05 28.78
  Q 150.45 43.88 137.32 52.86
  Q 136.93 53.13 136.83 52.66
  Q 133.90 38.63 140.55 24.17
  Z"
/>
<path fill="#6e8513" d="
  M 91.36 28.11
  C 99.50 36.15 104.88 47.69 104.66 59.26
  Q 104.65 59.78 104.13 59.69
  Q 98.05 58.57 92.95 55.99
  Q 92.31 55.67 92.48 54.97
  C 94.65 46.24 94.00 36.47 91.07 28.29
  Q 90.81 27.57 91.36 28.11
  Z"
/>
<path fill="#6e8513" d="
  M 119.98 59.22
  C 120.28 47.68 124.71 37.08 132.78 28.74
  Q 134.08 27.41 133.48 29.17
  Q 129.39 41.22 132.32 55.01
  Q 132.47 55.73 131.82 56.05
  Q 126.70 58.56 120.50 59.66
  Q 119.96 59.76 119.98 59.22
  Z"
/>
<path fill="#6e8513" d="
  M 86.39 58.57
  Q 84.51 64.36 81.01 69.29
  A 0.55 0.55 0.0 0 1 80.16 69.35
  Q 67.96 56.31 67.78 38.06
  Q 67.76 36.86 68.27 37.94
  C 72.04 46.03 78.57 52.81 86.10 57.73
  Q 86.57 58.04 86.39 58.57
  Z"
/>
<path fill="#6e8513" d="
  M 157.07 38.44
  C 156.61 50.35 152.65 60.99 144.60 69.34
  A 0.55 0.55 0.0 0 1 143.75 69.27
  Q 140.26 64.25 138.36 58.56
  Q 138.18 58.01 138.67 57.71
  Q 150.20 50.37 156.46 38.28
  Q 157.12 37.00 157.07 38.44
  Z"
/>
<circle fill="#5a6f09" cx="49.99" cy="49.86" r="11.24"/>
<circle fill="#5a6f09" cx="174.81" cy="49.85" r="11.23"/>
<path fill="#6e8513" d="
  M 84.60 72.68
  Q 88.43 67.17 90.73 60.94
  Q 90.96 60.34 91.54 60.61
  Q 97.66 63.54 104.02 64.61
  Q 104.58 64.70 104.51 65.27
  Q 103.46 73.48 99.77 80.81
  A 0.49 0.49 0.0 0 1 99.17 81.06
  Q 91.04 78.43 84.71 73.44
  Q 84.30 73.11 84.60 72.68
  Z"
/>
<path fill="#6e8513" d="
  M 134.10 61.06
  C 135.68 65.18 137.67 69.20 140.22 72.59
  Q 140.57 73.05 140.11 73.40
  Q 133.66 78.45 125.77 81.02
  Q 125.24 81.19 124.98 80.69
  Q 121.11 73.17 120.35 65.24
  Q 120.29 64.62 120.91 64.53
  Q 126.90 63.62 133.22 60.70
  Q 133.85 60.41 134.10 61.06
  Z"
/>
<path fill="#6e8513" d="
  M 115.41 65.81
  C 116.09 71.17 117.67 77.04 120.27 81.93
  A 0.27 0.26 -19.1 0 1 120.08 82.31
  Q 112.53 83.84 104.82 82.34
  Q 104.41 82.26 104.59 81.89
  Q 108.42 74.08 109.33 65.80
  A 0.59 0.57 -86.6 0 1 109.90 65.28
  L 114.77 65.25
  Q 115.33 65.25 115.41 65.81
  Z"
/>
<path fill="#6e8513" d="
  M 38.34 67.62
  C 50.02 67.62 61.15 72.00 69.55 80.06
  A 0.57 0.56 50.3 0 1 69.47 80.95
  Q 64.47 84.12 59.04 86.22
  Q 58.24 86.53 57.78 85.81
  Q 50.37 74.25 38.22 68.12
  Q 37.24 67.63 38.34 67.62
  Z"
/>
<path fill="#6e8513" d="
  M 165.84 86.23
  Q 160.22 84.10 155.39 81.02
  Q 154.57 80.50 155.30 79.86
  Q 168.91 67.74 186.10 67.63
  Q 187.57 67.62 186.26 68.28
  Q 174.36 74.30 167.02 85.84
  Q 166.58 86.52 165.84 86.23
  Z"
/>
<path fill="#6e8513" d="
  M 18.64 72.39
  Q 22.55 70.24 26.69 69.38
  Q 27.87 69.13 29.10 69.53
  Q 44.41 74.50 53.03 87.31
  Q 53.39 87.84 52.76 87.94
  Q 36.91 90.45 23.54 83.64
  Q 21.55 82.63 20.76 80.98
  Q 18.97 77.31 17.60 73.31
  Q 17.42 72.77 17.97 72.65
  Q 18.32 72.57 18.64 72.39
  Z"
/>
<path fill="#6e8513" d="
  M 204.30 80.43
  Q 203.42 82.56 201.29 83.62
  Q 187.48 90.53 171.98 87.89
  A 0.41 0.41 0.0 0 1 171.71 87.25
  Q 180.85 74.37 195.25 69.68
  C 198.84 68.51 203.38 70.99 206.70 72.54
  Q 207.29 72.82 207.09 73.44
  C 206.27 75.95 205.26 78.13 204.30 80.43
  Z"
/>
<path fill="#6e8513" d="
  M 81.87 77.23
  Q 88.60 82.69 96.46 85.15
  A 0.42 0.42 0.0 0 1 96.68 85.79
  Q 92.26 91.96 86.11 96.43
  A 0.44 0.44 0.0 0 1 85.44 96.23
  Q 82.48 88.14 77.48 81.69
  Q 77.05 81.14 77.54 80.65
  L 80.88 77.28
  Q 81.35 76.81 81.87 77.23
  Z"
/>
<path fill="#6e8513" d="
  M 139.40 96.17
  A 0.44 0.43 -63.3 0 1 138.75 96.39
  Q 132.58 92.25 128.24 85.83
  Q 127.92 85.36 128.47 85.17
  Q 136.24 82.53 143.00 77.18
  Q 143.47 76.81 143.89 77.23
  L 147.29 80.54
  A 0.87 0.86 -48.7 0 1 147.36 81.69
  Q 142.21 88.18 139.40 96.17
  Z"
/>
<path fill="#6e8513" d="
  M 73.62 84.53
  C 76.96 88.74 79.49 93.60 81.20 98.71
  A 0.69 0.68 67.0 0 1 80.87 99.53
  Q 74.58 103.00 65.68 104.36
  A 0.81 0.81 0.0 0 1 64.76 103.70
  Q 63.57 97.01 60.86 91.33
  Q 60.57 90.73 61.19 90.50
  Q 67.50 88.18 72.79 84.41
  Q 73.26 84.08 73.62 84.53
  Z"
/>
<path fill="#6e8513" d="
  M 144.31 99.90
  A 1.18 1.17 22.1 0 1 143.68 98.43
  Q 146.65 90.17 151.24 84.41
  A 0.48 0.48 0.0 0 1 151.89 84.32
  Q 157.47 88.30 163.74 90.55
  A 0.55 0.55 0.0 0 1 164.04 91.31
  Q 161.02 97.43 160.11 103.81
  Q 160.04 104.36 159.48 104.31
  Q 152.53 103.64 144.31 99.90
  Z"
/>
<path fill="#93ad18" d="
  M 87.10 102.20
  Q 86.99 101.62 87.48 101.28
  Q 96.11 95.41 101.52 87.16
  Q 101.80 86.74 102.28 86.85
  Q 112.36 88.94 122.47 86.82
  Q 122.93 86.73 123.19 87.11
  C 127.41 93.20 131.83 97.23 137.30 101.32
  Q 137.79 101.68 137.67 102.27
  Q 135.69 112.66 137.76 122.19
  A 0.90 0.90 0.0 0 1 137.38 123.13
  Q 128.76 128.88 123.25 137.18
  Q 122.92 137.67 122.34 137.55
  Q 112.21 135.43 102.62 137.54
  A 1.23 1.21 -22.9 0 1 101.34 137.03
  Q 95.67 128.58 87.40 123.06
  Q 86.99 122.79 87.08 122.29
  Q 88.89 112.12 87.10 102.20
  Z"
/>
<path fill="#6e8513" d="
  M 46.80 93.48
  C 49.73 93.34 52.59 92.70 55.49 92.29
  Q 55.98 92.22 56.19 92.67
  Q 58.74 98.25 59.88 104.15
  A 0.40 0.40 0.0 0 1 59.48 104.63
  Q 41.48 104.15 28.46 91.40
  Q 27.65 90.60 28.73 90.95
  Q 37.76 93.93 46.80 93.48
  Z"
/>
<path fill="#6e8513" d="
  M 164.86 104.06
  C 165.60 100.47 166.80 95.74 168.86 92.59
  Q 169.16 92.13 169.70 92.25
  Q 182.97 95.36 196.23 90.91
  Q 197.23 90.57 196.48 91.31
  Q 183.48 104.07 165.33 104.62
  A 0.47 0.46 5.4 0 1 164.86 104.06
  Z"
/>
<circle fill="#5a6f09" cx="24.13" cy="112.17" r="11.23"/>
<circle fill="#5a6f09" cx="200.64" cy="112.19" r="11.23"/>
<path fill="#6e8513" d="
  M 65.74 109.03
  C 70.97 108.65 77.08 107.06 81.90 104.36
  Q 82.46 104.04 82.57 104.68
  Q 83.88 112.33 82.63 119.61
  Q 82.51 120.28 81.90 119.98
  Q 74.28 116.14 65.83 115.23
  Q 65.47 115.19 65.47 114.83
  L 65.50 109.28
  Q 65.50 109.04 65.74 109.03
  Z"
/>
<path fill="#6e8513" d="
  M 158.70 115.22
  C 153.20 116.00 147.92 117.51 142.96 119.89
  A 0.68 0.67 -15.3 0 1 141.99 119.34
  Q 141.38 111.92 141.98 104.93
  A 0.62 0.62 0.0 0 1 142.88 104.43
  Q 150.56 108.24 158.66 109.00
  Q 159.29 109.06 159.29 109.69
  L 159.28 114.55
  Q 159.28 115.14 158.70 115.22
  Z"
/>
<path fill="#6e8513" d="
  M 28.74 132.66
  C 37.22 124.56 47.24 120.28 59.25 119.73
  Q 60.01 119.69 59.86 120.43
  Q 58.63 126.38 56.16 131.80
  Q 55.94 132.29 55.42 132.17
  Q 42.05 129.15 29.12 133.30
  Q 27.53 133.81 28.74 132.66
  Z"
/>
<path fill="#6e8513" d="
  M 72.76 140.01
  C 69.33 137.47 65.20 135.11 61.02 133.94
  A 0.48 0.47 -69.6 0 1 60.72 133.28
  Q 63.65 127.14 64.77 120.42
  Q 64.85 119.89 65.39 119.97
  Q 73.05 121.05 80.57 124.64
  A 0.98 0.98 0.0 0 1 81.08 125.82
  Q 78.69 133.22 73.67 139.88
  A 0.65 0.65 0.0 0 1 72.76 140.01
  Z"
/>
<path fill="#6e8513" d="
  M 195.98 133.35
  Q 181.80 129.11 169.40 132.24
  A 0.62 0.61 69.8 0 1 168.69 131.91
  Q 166.11 126.44 164.91 120.31
  Q 164.79 119.67 165.45 119.70
  Q 183.79 120.54 196.26 132.88
  Q 197.06 133.67 195.98 133.35
  Z"
/>
<path fill="#6e8513" d="
  M 144.06 124.71
  C 148.69 122.21 154.01 120.79 159.41 119.98
  Q 159.99 119.90 160.08 120.48
  Q 161.07 127.07 164.06 133.17
  Q 164.34 133.74 163.74 133.93
  Q 157.64 135.94 152.04 139.97
  A 0.67 0.66 -36.3 0 1 151.12 139.83
  Q 146.00 133.08 143.66 125.70
  Q 143.45 125.04 144.06 124.71
  Z"
/>
<path fill="#6e8513" d="
  M 77.43 142.81
  C 80.84 138.34 83.67 133.54 85.32 128.30
  Q 85.57 127.48 86.26 128.00
  Q 92.27 132.61 96.58 138.38
  Q 97.01 138.96 96.32 139.19
  Q 88.48 141.84 81.84 147.14
  A 0.74 0.73 -41.3 0 1 80.86 147.08
  L 77.48 143.64
  Q 77.09 143.25 77.43 142.81
  Z"
/>
<path fill="#6e8513" d="
  M 142.93 147.10
  C 138.37 143.62 133.59 140.89 128.37 139.16
  Q 127.73 138.94 128.14 138.41
  Q 132.72 132.52 138.72 127.81
  A 0.36 0.36 0.0 0 1 139.28 127.98
  Q 141.93 135.73 147.36 142.74
  A 0.73 0.73 0.0 0 1 147.30 143.71
  L 143.97 147.03
  A 0.80 0.80 0.0 0 1 142.93 147.10
  Z"
/>
<path fill="#6e8513" d="
  M 23.37 140.83
  C 32.73 136.17 42.80 134.56 52.96 136.57
  A 0.32 0.31 23.5 0 1 53.16 137.06
  Q 43.57 150.55 28.07 155.18
  Q 27.12 155.47 26.20 155.11
  L 18.10 152.00
  Q 17.49 151.77 17.68 151.14
  C 18.64 147.99 20.51 142.25 23.37 140.83
  Z"
/>
<path fill="#6e8513" d="
  M 201.59 140.98
  C 204.55 142.51 205.87 147.80 207.18 150.73
  Q 207.48 151.42 206.80 151.75
  C 204.24 152.98 198.86 155.84 196.03 154.93
  Q 180.59 149.99 171.94 137.40
  A 0.64 0.64 0.0 0 1 172.36 136.40
  Q 187.83 133.83 201.59 140.98
  Z"
/>
<path fill="#6e8513" d="
  M 58.84 138.09
  C 62.56 139.54 66.13 141.27 69.43 143.47
  A 0.62 0.62 0.0 0 1 69.51 144.45
  Q 55.93 156.75 38.35 156.80
  Q 37.12 156.81 38.22 156.26
  Q 50.39 150.21 57.91 138.39
  Q 58.25 137.86 58.84 138.09
  Z"
/>
<path fill="#6e8513" d="
  M 186.72 156.70
  C 175.10 156.86 163.39 152.43 155.23 144.26
  Q 154.82 143.84 155.29 143.51
  Q 160.37 139.97 166.08 138.14
  Q 166.62 137.97 166.92 138.45
  Q 174.57 150.34 186.79 156.37
  Q 187.45 156.69 186.72 156.70
  Z"
/>
<path fill="#6e8513" d="
  M 104.60 142.67
  A 0.57 0.57 0.0 0 1 105.06 141.85
  Q 112.88 141.17 119.70 141.86
  Q 120.40 141.93 120.10 142.57
  Q 116.45 150.38 115.44 158.41
  Q 115.35 159.13 114.62 159.14
  L 110.13 159.19
  A 0.84 0.82 -3.1 0 1 109.30 158.46
  Q 108.31 150.04 104.60 142.67
  Z"
/>
<path fill="#6e8513" d="
  M 99.99 144.00
  C 102.36 148.87 104.11 154.06 104.46 159.37
  Q 104.50 159.88 103.99 159.94
  Q 97.40 160.77 91.45 163.86
  A 0.44 0.43 -23.7 0 1 90.84 163.63
  Q 88.27 156.97 84.48 151.59
  A 0.38 0.38 0.0 0 1 84.55 151.08
  Q 90.84 146.00 98.77 143.48
  Q 99.60 143.21 99.99 144.00
  Z"
/>
<path fill="#6e8513" d="
  M 133.56 163.87
  Q 126.86 160.66 120.85 159.94
  Q 120.26 159.87 120.32 159.28
  Q 121.13 151.38 124.89 143.91
  A 0.96 0.94 22.7 0 1 126.04 143.45
  Q 133.61 146.01 139.81 150.72
  Q 140.54 151.27 140.02 152.02
  Q 136.18 157.43 133.98 163.70
  Q 133.87 164.02 133.56 163.87
  Z"
/>
<path fill="#6e8513" d="
  M 81.02 154.96
  C 82.75 157.57 85.93 162.57 86.35 165.93
  Q 86.43 166.50 85.94 166.81
  Q 74.32 174.32 68.49 185.95
  Q 67.60 187.73 67.69 185.74
  Q 68.58 166.88 80.42 154.91
  A 0.39 0.39 0.0 0 1 81.02 154.96
  Z"
/>
<path fill="#6e8513" d="
  M 144.45 154.81
  C 152.58 163.63 156.97 174.29 157.04 186.41
  A 0.24 0.23 -4.3 0 1 156.83 186.64
  Q 156.64 186.65 156.56 186.48
  Q 150.51 174.24 138.80 166.79
  Q 138.16 166.38 138.41 165.67
  Q 140.61 159.53 143.92 154.85
  A 0.34 0.34 0.0 0 1 144.45 154.81
  Z"
/>
<circle fill="#5a6f09" cx="49.99" cy="174.56" r="11.23"/>
<circle fill="#5a6f09" cx="174.79" cy="174.55" r="11.22"/>
<path fill="#6e8513" d="
  M 133.43 196.28
  C 124.85 187.71 120.38 177.16 119.97 164.93
  A 0.32 0.32 0.0 0 1 120.35 164.60
  Q 126.76 165.89 132.00 168.38
  A 0.65 0.64 -71.0 0 1 132.35 169.10
  Q 129.29 183.25 133.75 196.08
  Q 134.02 196.88 133.43 196.28
  Z"
/>
<path fill="#6e8513" d="
  M 104.69 165.37
  C 104.53 177.15 99.71 187.87 91.44 196.27
  Q 90.63 197.09 91.02 196.00
  Q 95.66 182.87 92.43 169.33
  A 0.97 0.96 -18.2 0 1 93.00 168.22
  Q 98.18 166.06 103.80 164.66
  Q 104.70 164.44 104.69 165.37
  Z"
/>
<path fill="#6e8513" d="
  M 137.35 171.46
  Q 150.51 180.72 155.09 195.66
  C 155.99 198.58 153.35 203.81 152.04 206.49
  Q 151.80 206.99 151.26 206.84
  Q 147.81 205.82 143.65 203.76
  Q 141.94 202.92 140.94 200.92
  Q 134.01 187.08 136.74 171.71
  Q 136.84 171.10 137.35 171.46
  Z"
/>
<path fill="#6e8513" d="
  M 72.75 206.61
  C 71.66 203.29 68.60 198.90 69.71 195.40
  Q 74.40 180.69 87.39 171.55
  A 0.41 0.41 0.0 0 1 88.03 171.81
  Q 90.79 188.12 83.20 202.11
  A 2.80 2.77 -89.4 0 1 82.07 203.23
  Q 78.17 205.31 73.43 206.95
  A 0.54 0.54 0.0 0 1 72.75 206.61
  Z"
/>
<circle fill="#5a6f09" cx="112.40" cy="200.39" r="11.22"/>
</svg>
